<?xml version="1.0" standalone="yes"?><!DOCTYPE svg PUBLIC "-//W3C//DTD SVG 1.1//EN" "http://www.w3.org/Graphics/SVG/1.1/DTD/svg11.dtd"[
<!ENTITY E12 'stroke:none;opacity:1;fill:rgb(68,154,223);'><!ENTITY E29 'stroke:none;opacity:1;fill:rgb(91,178,126);'><!ENTITY E25 'matrix(1.00 0.00 0.00 1.00 84.00 4.00 ) '><!ENTITY E11 'matrix(1.00 0.00 0.00 1.00 244.00 84.00 ) '><!ENTITY E10 'matrix(1.00 0.00 0.00 1.00 0.00 0.00 ) '><!ENTITY E14 'stroke:none;fill-rule:evenodd;opacity:1;fill:rgb(255,255,255);'><!ENTITY E3 'stroke:rgb(169,169,169);fill:none;stroke-linecap:butt;stroke-miterlimit:9;opacity:1;stroke-width:2;stroke-linejoin:miter;'><!ENTITY E8 'stroke:rgb(255,255,255);fill:none;stroke-linecap:butt;stroke-miterlimit:9;opacity:1;stroke-width:2;stroke-linejoin:miter;'><!ENTITY E1 'stroke:rgb(169,169,169);fill:none;stroke-linecap:butt;stroke-miterlimit:9;opacity:1;stroke-width:1;stroke-linejoin:miter;'><!ENTITY E31 'matrix(1.00 0.00 0.00 1.00 4.00 4.00 ) '><!ENTITY E6 'stroke:none;opacity:1;fill:rgb(255,255,255);'><!ENTITY E16 'matrix(1.00 0.00 0.00 1.00 164.00 4.00 ) '><!ENTITY E28 'matrix(1.00 0.00 0.00 1.00 84.00 84.00 ) '><!ENTITY E4 'matrix(1.00 0.00 0.00 1.00 244.00 4.00 ) '><!ENTITY E20 'matrix(1.00 0.00 0.00 1.00 164.00 84.00 ) '><!ENTITY E13 'M 18.422 13 13.4357 18.5006 10.8556 15.9868 6.500101 20.5001 23.9571 20.48582 z '><!ENTITY E7 'M 10.082 15.655 C 13.5023 13.0496 16.1727 13.2369 19.3649 15.64395 M 6.568899 12.14155 C 11.9518 7.82015 17.1159 7.63745 22.9119 12.09735 '><!ENTITY E27 'M 31.179 5.2 C 34.9985 11.0918 34.9814 18.682 31.13552 24.557 '>
]><svg width="319.1999" height="132.8252" id="SvgGdi_output" xmlns="http://www.w3.org/2000/svg" xmlns:xlink="http://www.w3.org/1999/xlink"><rect id="background" height="100.00%" style="fill:rgb(255,255,255);" width="100.00%" y="0.00" x="0.00" /><g style="shape-rendering:auto;" id="root_group"><line y1="19.00" style="&E1;" id="160" x2="240.00" y2="19.00" x1="198.00" /><line y1="99.00" style="&E1;" id="161" x2="240.00" y2="99.00" x1="198.00" /><line y1="19.00" style="&E1;" id="162" x2="160.00" y2="19.00" x1="118.00" /><line y1="99.00" style="&E1;" id="163" x2="160.00" y2="99.00" x1="118.00" /><line y1="19.00" style="&E1;" id="164" x2="80.00" y2="19.00" x1="38.00" /><path style="&E3;" transform="&E4;" id="165" d="M 10.158 33.2 C 3.4054 31.7591 -1.861 26.4692 -3.271 19.71 " /><ellipse id="166" cy="15.00" cx="15.00" transform="&E4;" rx="15.00" ry="15.00" style="stroke:none;opacity:1;fill:rgb(155,91,179);" /><ellipse id="167" cy="20.29" cx="14.72" transform="&E4;" rx="2.40" ry="2.40" style="&E6;" /><path d="&E7;" style="&E8;" transform="&E4;" id="168" /><text id="169" transform="&E10;" x="244.00px" y="39.00px" style="stroke:none;clip-path:url(#171_text_clipper);font-family:Microsoft Sans Serif;fill:rgb(0,0,0);font-size:8.25pt;opacity:1;"><tspan dy="8.25pt" id="173">Publisher</tspan></text><ellipse id="175" cy="15.00" cx="15.00" transform="&E11;" rx="15.00" ry="15.00" style="&E12;" /><path d="&E13;" style="&E14;" transform="&E11;" id="176" /><ellipse id="177" cy="10.96" cx="10.92" transform="&E11;" rx="2.75" ry="2.75" style="&E6;" /><text id="178" transform="&E10;" x="244.00px" y="119.00px" style="stroke:none;clip-path:url(#180_text_clipper);font-family:Microsoft Sans Serif;fill:rgb(0,0,0);font-size:8.25pt;opacity:1;"><tspan dy="8.25pt" id="182">DecodeImage</tspan></text><ellipse id="184" cy="15.00" cx="15.00" transform="&E16;" rx="15.00" ry="15.00" style="&E12;" /><path style="&E8;" transform="&E16;" id="185" d="M 20.824 23.115 20.824 7.098999 M 17.3572 17.48 17.3572 12.7339 M 13.8904 21.2046 13.8904 9.009602 M 10.4236 18.6248 10.4236 11.5896 M 6.9568 16.3923 6.9568 13.822 " /><text id="186" transform="&E10;" x="164.00px" y="39.00px" style="stroke:none;clip-path:url(#188_text_clipper);font-family:Microsoft Sans Serif;fill:rgb(0,0,0);font-size:8.25pt;opacity:1;"><tspan dy="8.25pt" id="190">ConvertTo</tspan></text><text id="192" transform="&E10;" x="164.00px" y="51.45px" style="stroke:none;clip-path:url(#194_text_clipper);font-family:Microsoft Sans Serif;fill:rgb(0,0,0);font-size:8.25pt;opacity:1;"><tspan dy="8.25pt" id="196">Array</tspan></text><ellipse id="198" cy="15.00" cx="15.00" transform="&E20;" rx="15.00" ry="15.00" style="&E12;" /><path style="&E14;" transform="&E20;" id="199" d="M 19.156 13.888 19.156 10.3647 19.156 6.841399 25.2585 10.3647 22.2072 12.1264 z " /><path style="&E14;" transform="&E20;" id="200" d="M 19.156 22.97 19.156 19.4467 19.156 15.9234 25.2585 19.4467 22.2072 21.2084 z " /><path style="&E8;" transform="&E20;" id="201" d="M 5.5001 19.484 10.6493 19.484 16.2743 10.2485 19.3728 10.2485 M 14.6769 17.1481 16.3089 19.4828 19.2202 19.4828 M 5.500199 10.2437 10.7586 10.2437 12.1652 12.8707 " /><text id="202" transform="&E10;" x="164.00px" y="119.00px" style="stroke:none;clip-path:url(#204_text_clipper);font-family:Microsoft Sans Serif;fill:rgb(0,0,0);font-size:8.25pt;opacity:1;"><tspan dy="8.25pt" id="206">Last.Buffer</tspan></text><ellipse id="208" cy="15.00" cx="15.00" transform="&E25;" rx="15.00" ry="15.00" style="&E12;" /><path d="&E13;" style="&E14;" transform="&E25;" id="209" /><ellipse id="210" cy="10.96" cx="10.92" transform="&E25;" rx="2.75" ry="2.75" style="&E6;" /><text id="211" transform="&E10;" x="84.00px" y="39.00px" style="stroke:none;clip-path:url(#213_text_clipper);font-family:Microsoft Sans Serif;fill:rgb(0,0,0);font-size:8.25pt;opacity:1;"><tspan dy="8.25pt" id="215">EncodeImage</tspan></text><path d="&E27;" style="&E3;" transform="&E28;" id="217" /><ellipse id="218" cy="15.00" cx="15.00" transform="&E28;" rx="15.00" ry="15.00" style="&E29;" /><ellipse id="219" cy="20.29" cx="14.72" transform="&E28;" rx="2.40" ry="2.40" style="&E6;" /><path d="&E7;" style="&E8;" transform="&E28;" id="220" /><text id="221" transform="&E10;" x="84.00px" y="119.00px" style="stroke:none;clip-path:url(#223_text_clipper);font-family:Microsoft Sans Serif;fill:rgb(0,0,0);font-size:8.25pt;opacity:1;"><tspan dy="8.25pt" id="225">Subscriber</tspan></text><path d="&E27;" style="&E3;" transform="&E31;" id="227" /><ellipse id="228" cy="15.00" cx="15.00" transform="&E31;" rx="15.00" ry="15.00" style="&E29;" /><path style="&E14;" transform="&E31;" id="229" d="M 23.75 9.1 19.5587 11.5211 19.5587 18.3937 23.75 20.8147 z " /><path style="&E14;" transform="&E31;" id="230" d="M 8.6927 9.2 15.7194 9.2 C 17.19 9.2 18.3739 10.4337 18.3739 11.9661 L 18.3739 17.8234 C 18.3739 19.3558 17.19 20.5893 15.7194 20.5893 L 8.692701 20.5893 C 7.222101 20.5893 6.038201 19.3558 6.038201 17.8234 L 6.038201 11.9661 C 6.038201 10.4337 7.222101 9.199999 8.692701 9.199999 z " /><text id="231" transform="&E10;" x="4.00px" y="39.00px" style="stroke:none;clip-path:url(#233_text_clipper);font-family:Microsoft Sans Serif;fill:rgb(0,0,0);font-size:8.25pt;opacity:1;"><tspan dy="8.25pt" id="235">Camera</tspan></text><text id="237" transform="&E10;" x="4.00px" y="51.45px" style="stroke:none;clip-path:url(#239_text_clipper);font-family:Microsoft Sans Serif;fill:rgb(0,0,0);font-size:8.25pt;opacity:1;"><tspan dy="8.25pt" id="241">Capture</tspan></text></g><defs id="clips_hatches_and_gradients"><clipPath id="171_text_clipper"><rect x="244.00" y="39.00" width="51.03" height="13.83" id="172" /></clipPath><clipPath id="180_text_clipper"><rect x="244.00" y="119.00" width="74.20" height="13.83" id="181" /></clipPath><clipPath id="188_text_clipper"><rect x="164.00" y="39.00" width="56.56" height="27.65" id="189" /></clipPath><clipPath id="194_text_clipper"><rect x="164.00" y="51.45" width="56.56" height="27.65" id="195" /></clipPath><clipPath id="204_text_clipper"><rect x="164.00" y="119.00" width="58.45" height="13.83" id="205" /></clipPath><clipPath id="213_text_clipper"><rect x="84.00" y="39.00" width="73.58" height="13.83" id="214" /></clipPath><clipPath id="223_text_clipper"><rect x="84.00" y="119.00" width="57.88" height="13.83" id="224" /></clipPath><clipPath id="233_text_clipper"><rect x="4.00" y="39.00" width="43.97" height="27.65" id="234" /></clipPath><clipPath id="239_text_clipper"><rect x="4.00" y="51.45" width="43.97" height="27.65" id="240" /></clipPath></defs></svg>