<?xml version="1.0" standalone="yes"?><!DOCTYPE svg PUBLIC "-//W3C//DTD SVG 1.1//EN" "http://www.w3.org/Graphics/SVG/1.1/DTD/svg11.dtd"[
<!ENTITY E11 'stroke:none;opacity:1;fill:rgb(68,154,223);'><!ENTITY E16 'matrix(1.00 0.00 0.00 1.00 324.00 244.00 ) '><!ENTITY E25 'matrix(1.00 0.00 0.00 1.00 244.00 164.00 ) '><!ENTITY E9 'matrix(1.00 0.00 0.00 1.00 0.00 0.00 ) '><!ENTITY E5 'stroke:none;fill-rule:evenodd;opacity:1;fill:rgb(255,255,255);'><!ENTITY E6 'stroke:rgb(169,169,169);fill:none;stroke-linecap:butt;stroke-miterlimit:9;opacity:1;stroke-width:2;stroke-linejoin:miter;'><!ENTITY E48 'matrix(1.00 0.00 0.00 1.00 84.00 4.00 ) '><!ENTITY E10 'matrix(1.00 0.00 0.00 1.00 324.00 164.00 ) '><!ENTITY E28 'M 5.5001 19.484 10.6493 19.484 16.2743 10.2485 19.3728 10.2485 M 14.6769 17.1481 16.3089 19.4828 19.2202 19.4828 M 5.500199 10.2437 10.7586 10.2437 12.1652 12.8707 '><!ENTITY E26 'M 19.156 13.888 19.156 10.3647 19.156 6.841399 25.2585 10.3647 22.2072 12.1264 z '><!ENTITY E27 'M 19.156 22.97 19.156 19.4467 19.156 15.9234 25.2585 19.4467 22.2072 21.2084 z '><!ENTITY E13 'stroke:rgb(255,255,255);fill:none;stroke-linecap:butt;stroke-miterlimit:9;opacity:1;stroke-width:2;stroke-linejoin:miter;'><!ENTITY E1 'stroke:rgb(169,169,169);fill:none;stroke-linecap:butt;stroke-miterlimit:9;opacity:1;stroke-width:1;stroke-linejoin:miter;'><!ENTITY E46 'matrix(1.00 0.00 0.00 1.00 164.00 404.00 ) '><!ENTITY E41 'M 8.5404 18.526 C 8.154759 18.14036 8.426559 17.3734 8.7512 17.0487 9.0693 16.7306 9.8857 16.65478 10.3397 17.03595 L 12.5301 18.80525 12.82094 9.664146 C 12.82094 9.305857 13.42471 8.739877 14.05254 8.739877 14.79871 8.739877 15.36764 9.316096 15.36764 9.695367 L 15.5586 15.04327 20.0645 16.74627 C 20.25033 16.81 20.49544 16.99536 20.49518 17.22225 L 20.49808 21.04985 19.11318 23.37955 19.11318 24.51755 13.23218 24.51755 13.23218 23.37955 z '><!ENTITY E38 'matrix(1.00 0.00 0.00 1.00 164.00 4.00 ) '><!ENTITY E36 'matrix(1.00 0.00 0.00 1.00 244.00 404.00 ) '><!ENTITY E2 'matrix(1.00 0.00 0.00 1.00 324.00 4.00 ) '><!ENTITY E22 'matrix(1.00 0.00 0.00 1.00 244.00 4.00 ) '><!ENTITY E50 'matrix(1.00 0.00 0.00 1.00 4.00 4.00 ) '><!ENTITY E32 'stroke:none;opacity:1;fill:rgb(91,178,126);'><!ENTITY E44 'matrix(1.00 0.00 0.00 1.00 164.00 324.00 ) '><!ENTITY E7 'stroke:none;opacity:1;fill:rgb(255,255,255);'><!ENTITY E34 'matrix(1.00 0.00 0.00 1.00 244.00 324.00 ) '><!ENTITY E12 'M 10.082 15.655 C 13.5023 13.0496 16.1727 13.2369 19.3649 15.64395 M 6.568899 12.14155 C 11.9518 7.82015 17.1159 7.63745 22.9119 12.09735 '><!ENTITY E18 'matrix(1.00 0.00 0.00 1.00 324.00 324.00 ) '><!ENTITY E3 'stroke:none;opacity:1;fill:rgb(238,192,75);'><!ENTITY E42 'M 10.482 12.156 C 9.063601 9.8878 10.57304 6.5688 13.2149 6.1474 15.8164 5.52346 18.4832 8.0098 18.0432 10.6485 L 17.97693 11.02591 '><!ENTITY E23 'M 16.849 10.062 23.4027 10.062 M 16.6038 19.6084 23.3505 19.6084 M 12.3075 17.1615 7.5719 21.8971 M 7.577335 17.152 12.31704 21.8917 M 6.564136 10.0047 13.30904 10.0047 M 9.936636 6.6288 9.936636 13.3806 '><!ENTITY E40 'matrix(1.00 0.00 0.00 1.00 164.00 244.00 ) '><!ENTITY E20 'matrix(1.00 0.00 0.00 1.00 324.00 404.00 ) '><!ENTITY E30 'M 31.179 5.2 C 34.9985 11.0918 34.9814 18.682 31.13552 24.557 '><!ENTITY E31 'matrix(1.00 0.00 0.00 1.00 244.00 244.00 ) '>
]><svg width="381.5558" height="452.8252" id="SvgGdi_output" xmlns="http://www.w3.org/2000/svg" xmlns:xlink="http://www.w3.org/1999/xlink"><rect id="background" height="100.00%" style="fill:rgb(255,255,255);" width="100.00%" y="0.00" x="0.00" /><g style="shape-rendering:auto;" id="root_group"><line y1="19.00" style="&E1;" id="242" x2="320.00" y2="19.00" x1="278.00" /><line y1="99.00" style="&E1;" id="243" x2="320.00" y2="19.00" x1="278.00" /><line y1="179.00" style="&E1;" id="244" x2="320.00" y2="179.00" x1="278.00" /><line y1="259.00" style="&E1;" id="245" x2="320.00" y2="259.00" x1="278.00" /><line y1="339.00" style="&E1;" id="246" x2="320.00" y2="339.00" x1="278.00" /><line y1="419.00" style="&E1;" id="247" x2="320.00" y2="419.00" x1="278.00" /><line y1="19.00" style="&E1;" id="248" x2="240.00" y2="19.00" x1="198.00" /><line y1="19.00" style="&E1;" id="249" x2="240.00" y2="99.00" x1="198.00" /><line y1="179.00" style="&E1;" id="250" x2="240.00" y2="179.00" x1="198.00" /><line y1="259.00" style="&E1;" id="251" x2="240.00" y2="259.00" x1="198.00" /><line y1="339.00" style="&E1;" id="252" x2="240.00" y2="339.00" x1="198.00" /><line y1="419.00" style="&E1;" id="253" x2="240.00" y2="419.00" x1="198.00" /><line y1="19.00" style="&E1;" id="254" x2="160.00" y2="19.00" x1="118.00" /><line y1="179.00" style="&E1;" id="255" x2="160.00" y2="179.00" x1="118.00" /><line y1="19.00" style="&E1;" id="256" x2="80.00" y2="19.00" x1="38.00" /><line y1="19.00" style="&E1;" id="257" x2="80.00" y2="179.00" x1="38.00" /><ellipse id="258" cy="15.00" cx="15.00" transform="&E2;" rx="15.00" ry="15.00" style="&E3;" /><path style="&E5;" transform="&E2;" id="259" d="M 12.246 6.0137 12.246 6.019559 C 12.05806 6.020259 11.89471 6.040434 11.76748 6.066434 10.86869 6.352735 10.89631 6.934374 9.87688 7.685534 8.863379 8.264335 8.35338 7.819914 7.61518 8.419914 6.87845 9.015514 7.39292 10.38251 7.08393 10.64841 6.77722 11.18001 5.82553 11.65471 5.65233 12.32611 5.50916 13.18481 6.04191 13.79701 6.02147 14.53311 6.08287 15.14641 5.41127 15.49489 5.5078 15.99211 5.79702 16.80421 6.35438 17.29221 6.6172 17.51751 6.663351 17.54951 6.700028 17.5985 6.714856 17.6015 6.790713 17.792 6.858586 17.98645 6.955086 18.16595 6.949606 18.13995 6.948576 18.11382 6.943367 18.08782 6.998228 18.30542 7.055077 18.52401 7.132816 18.73821 8.683116 22.09901 12.81412 24.68611 17.34182 24.11711 19.54102 23.84771 22.82442 22.33171 24.16602 18.73821 23.22044 19.58671 21.53152 20.32421 20.77732 20.38081 23.33002 19.10511 24.70712 16.93741 24.32031 13.97461 23.79154 15.23341 23.09341 16.20131 22.22071 16.86521 24.07451 13.97551 23.75691 12.48131 22.38478 10.83981 23.36615 13.53881 22.09719 16.53431 19.33208 18.66401 20.45238 18.78541 21.51657 18.51614 22.50198 17.71284 21.01318 19.37354 19.14968 20.20834 17.01368 20.43554 18.03358 21.30254 19.01818 21.69454 19.95898 21.52734 17.34458 22.24884 15.15478 21.45428 12.49018 18.80074 12.3507 19.51504 13.10514 20.62754 13.88278 21.33784 9.373278 19.38284 8.976177 13.29584 14.46872 11.79294 14.47202 11.79294 14.47518 11.79384 14.47848 11.79294 17.74978 13.70674 21.86528 13.58084 22.05078 12.34372 22.50885 10.86082 19.96508 7.805223 16.16208 7.007823 15.4618 6.871123 14.79228 6.817344 14.15428 6.835943 14.16706 6.835943 14.17858 6.836182 14.19139 6.826178 13.58399 6.177278 12.80989 6.011678 12.24609 6.013678 z M 17.17769 9.046878 C 17.72373 9.046878 18.22259 9.543848 18.22259 10.08988 18.22259 10.63598 17.72371 11.13288 17.17769 11.13288 16.63165 11.13288 16.13469 10.63601 16.13469 10.08988 16.13474 9.543879 16.63162 9.046778 17.17769 9.046878 z " /><ellipse id="260" cy="19.00" cx="324.00" rx="3.00" ry="3.00" style="&E6;" /><ellipse id="261" cy="19.00" cx="324.00" rx="3.00" ry="3.00" style="&E7;" /><text id="262" transform="&E9;" x="324.00px" y="39.00px" style="stroke:none;clip-path:url(#264_text_clipper);font-family:Microsoft Sans Serif;fill:rgb(0,0,0);font-size:8.25pt;opacity:1;"><tspan dy="8.25pt" id="266">Zip</tspan></text><ellipse id="268" cy="15.00" cx="15.00" transform="&E10;" rx="15.00" ry="15.00" style="&E11;" /><ellipse id="269" cy="20.29" cx="14.72" transform="&E10;" rx="2.40" ry="2.40" style="&E7;" /><path d="&E12;" style="&E13;" transform="&E10;" id="270" /><text id="271" transform="&E9;" x="324.00px" y="199.00px" style="stroke:none;clip-path:url(#273_text_clipper);font-family:Microsoft Sans Serif;fill:rgb(0,0,0);font-size:8.25pt;opacity:1;"><tspan dy="8.25pt" id="275">ConvertTo</tspan></text><text id="277" transform="&E9;" x="324.00px" y="211.45px" style="stroke:none;clip-path:url(#279_text_clipper);font-family:Microsoft Sans Serif;fill:rgb(0,0,0);font-size:8.25pt;opacity:1;"><tspan dy="8.25pt" id="281">String</tspan></text><ellipse id="283" cy="15.00" cx="15.00" transform="&E16;" rx="15.00" ry="15.00" style="&E3;" /><ellipse id="284" cy="20.29" cx="14.72" transform="&E16;" rx="2.40" ry="2.40" style="&E7;" /><path d="&E12;" style="&E13;" transform="&E16;" id="285" /><text id="286" transform="&E9;" x="324.00px" y="279.00px" style="stroke:none;clip-path:url(#288_text_clipper);font-family:Microsoft Sans Serif;fill:rgb(0,0,0);font-size:8.25pt;opacity:1;"><tspan dy="8.25pt" id="290">Dealer</tspan></text><ellipse id="292" cy="15.00" cx="15.00" transform="&E18;" rx="15.00" ry="15.00" style="&E3;" /><ellipse id="293" cy="20.29" cx="14.72" transform="&E18;" rx="2.40" ry="2.40" style="&E7;" /><path d="&E12;" style="&E13;" transform="&E18;" id="294" /><text id="295" transform="&E9;" x="324.00px" y="359.00px" style="stroke:none;clip-path:url(#297_text_clipper);font-family:Microsoft Sans Serif;fill:rgb(0,0,0);font-size:8.25pt;opacity:1;"><tspan dy="8.25pt" id="299">Dealer</tspan></text><ellipse id="301" cy="15.00" cx="15.00" transform="&E20;" rx="15.00" ry="15.00" style="&E3;" /><ellipse id="302" cy="20.29" cx="14.72" transform="&E20;" rx="2.40" ry="2.40" style="&E7;" /><path d="&E12;" style="&E13;" transform="&E20;" id="303" /><text id="304" transform="&E9;" x="324.00px" y="439.00px" style="stroke:none;clip-path:url(#306_text_clipper);font-family:Microsoft Sans Serif;fill:rgb(0,0,0);font-size:8.25pt;opacity:1;"><tspan dy="8.25pt" id="308">Dealer</tspan></text><ellipse id="310" cy="15.00" cx="15.00" transform="&E22;" rx="15.00" ry="15.00" style="&E11;" /><path d="&E23;" style="&E13;" transform="&E22;" id="311" /><ellipse id="312" cy="16.33" cx="19.93" transform="&E22;" rx="1.30" ry="1.30" style="&E7;" /><ellipse id="313" cy="22.83" cx="19.93" transform="&E22;" rx="1.30" ry="1.30" style="&E7;" /><text id="314" transform="&E9;" x="244.00px" y="39.00px" style="stroke:none;clip-path:url(#316_text_clipper);font-family:Microsoft Sans Serif;fill:rgb(0,0,0);font-size:8.25pt;opacity:1;"><tspan dy="8.25pt" id="318">Index</tspan></text><line y1="99.00" style="&E1;" id="320" x2="278.00" y2="99.00" x1="240.00" /><ellipse id="321" cy="15.00" cx="15.00" transform="&E25;" rx="15.00" ry="15.00" style="&E11;" /><path d="&E26;" style="&E5;" transform="&E25;" id="322" /><path d="&E27;" style="&E5;" transform="&E25;" id="323" /><path d="&E28;" style="&E13;" transform="&E25;" id="324" /><text id="325" transform="&E9;" x="244.00px" y="199.00px" style="stroke:none;clip-path:url(#327_text_clipper);font-family:Microsoft Sans Serif;fill:rgb(0,0,0);font-size:8.25pt;opacity:1;"><tspan dy="8.25pt" id="329">Request.Last</tspan></text><path d="&E30;" style="&E6;" transform="&E31;" id="331" /><ellipse id="332" cy="15.00" cx="15.00" transform="&E31;" rx="15.00" ry="15.00" style="&E32;" /><path d="&E23;" style="&E13;" transform="&E31;" id="333" /><ellipse id="334" cy="16.33" cx="19.93" transform="&E31;" rx="1.30" ry="1.30" style="&E7;" /><ellipse id="335" cy="22.83" cx="19.93" transform="&E31;" rx="1.30" ry="1.30" style="&E7;" /><text id="336" transform="&E9;" x="244.00px" y="279.00px" style="stroke:none;clip-path:url(#338_text_clipper);font-family:Microsoft Sans Serif;fill:rgb(0,0,0);font-size:8.25pt;opacity:1;"><tspan dy="8.25pt" id="340">String</tspan></text><path d="&E30;" style="&E6;" transform="&E34;" id="342" /><ellipse id="343" cy="15.00" cx="15.00" transform="&E34;" rx="15.00" ry="15.00" style="&E32;" /><path d="&E23;" style="&E13;" transform="&E34;" id="344" /><ellipse id="345" cy="16.33" cx="19.93" transform="&E34;" rx="1.30" ry="1.30" style="&E7;" /><ellipse id="346" cy="22.83" cx="19.93" transform="&E34;" rx="1.30" ry="1.30" style="&E7;" /><text id="347" transform="&E9;" x="244.00px" y="359.00px" style="stroke:none;clip-path:url(#349_text_clipper);font-family:Microsoft Sans Serif;fill:rgb(0,0,0);font-size:8.25pt;opacity:1;"><tspan dy="8.25pt" id="351">String</tspan></text><path d="&E30;" style="&E6;" transform="&E36;" id="353" /><ellipse id="354" cy="15.00" cx="15.00" transform="&E36;" rx="15.00" ry="15.00" style="&E32;" /><path d="&E23;" style="&E13;" transform="&E36;" id="355" /><ellipse id="356" cy="16.33" cx="19.93" transform="&E36;" rx="1.30" ry="1.30" style="&E7;" /><ellipse id="357" cy="22.83" cx="19.93" transform="&E36;" rx="1.30" ry="1.30" style="&E7;" /><text id="358" transform="&E9;" x="244.00px" y="439.00px" style="stroke:none;clip-path:url(#360_text_clipper);font-family:Microsoft Sans Serif;fill:rgb(0,0,0);font-size:8.25pt;opacity:1;"><tspan dy="8.25pt" id="362">String</tspan></text><ellipse id="364" cy="15.00" cx="15.00" transform="&E38;" rx="15.00" ry="15.00" style="&E11;" /><path d="&E26;" style="&E5;" transform="&E38;" id="365" /><path d="&E27;" style="&E5;" transform="&E38;" id="366" /><path d="&E28;" style="&E13;" transform="&E38;" id="367" /><text id="368" transform="&E9;" x="164.00px" y="39.00px" style="stroke:none;clip-path:url(#370_text_clipper);font-family:Microsoft Sans Serif;fill:rgb(0,0,0);font-size:8.25pt;opacity:1;"><tspan dy="8.25pt" id="372">Buffer</tspan></text><line y1="179.00" style="&E1;" id="374" x2="198.00" y2="179.00" x1="160.00" /><path d="&E30;" style="&E6;" transform="&E40;" id="375" /><ellipse id="376" cy="15.00" cx="15.00" transform="&E40;" rx="15.00" ry="15.00" style="&E32;" /><path d="&E41;" style="&E5;" transform="&E40;" id="377" /><path d="&E42;" style="&E13;" transform="&E40;" id="378" /><text id="379" transform="&E9;" x="164.00px" y="279.00px" style="stroke:none;clip-path:url(#381_text_clipper);font-family:Microsoft Sans Serif;fill:rgb(0,0,0);font-size:8.25pt;opacity:1;"><tspan dy="8.25pt" id="383">KeyDown</tspan></text><path d="&E30;" style="&E6;" transform="&E44;" id="385" /><ellipse id="386" cy="15.00" cx="15.00" transform="&E44;" rx="15.00" ry="15.00" style="&E32;" /><path d="&E41;" style="&E5;" transform="&E44;" id="387" /><path d="&E42;" style="&E13;" transform="&E44;" id="388" /><text id="389" transform="&E9;" x="164.00px" y="359.00px" style="stroke:none;clip-path:url(#391_text_clipper);font-family:Microsoft Sans Serif;fill:rgb(0,0,0);font-size:8.25pt;opacity:1;"><tspan dy="8.25pt" id="393">KeyDown</tspan></text><path d="&E30;" style="&E6;" transform="&E46;" id="395" /><ellipse id="396" cy="15.00" cx="15.00" transform="&E46;" rx="15.00" ry="15.00" style="&E32;" /><path d="&E41;" style="&E5;" transform="&E46;" id="397" /><path d="&E42;" style="&E13;" transform="&E46;" id="398" /><text id="399" transform="&E9;" x="164.00px" y="439.00px" style="stroke:none;clip-path:url(#401_text_clipper);font-family:Microsoft Sans Serif;fill:rgb(0,0,0);font-size:8.25pt;opacity:1;"><tspan dy="8.25pt" id="403">KeyDown</tspan></text><ellipse id="405" cy="15.00" cx="15.00" transform="&E48;" rx="15.00" ry="15.00" style="&E11;" /><path d="&E26;" style="&E5;" transform="&E48;" id="406" /><path d="&E27;" style="&E5;" transform="&E48;" id="407" /><path d="&E28;" style="&E13;" transform="&E48;" id="408" /><text id="409" transform="&E9;" x="84.00px" y="39.00px" style="stroke:none;clip-path:url(#411_text_clipper);font-family:Microsoft Sans Serif;fill:rgb(0,0,0);font-size:8.25pt;opacity:1;"><tspan dy="8.25pt" id="413">Request.First</tspan></text><line y1="179.00" style="&E1;" id="415" x2="118.00" y2="179.00" x1="80.00" /><path d="&E30;" style="&E6;" transform="&E50;" id="416" /><ellipse id="417" cy="15.00" cx="15.00" transform="&E50;" rx="15.00" ry="15.00" style="&E32;" /><ellipse id="418" cy="20.29" cx="14.72" transform="&E50;" rx="2.40" ry="2.40" style="&E7;" /><path d="&E12;" style="&E13;" transform="&E50;" id="419" /><ellipse id="420" cy="19.00" cx="4.00" rx="3.00" ry="3.00" style="&E6;" /><ellipse id="421" cy="19.00" cx="4.00" rx="3.00" ry="3.00" style="&E7;" /><text id="422" transform="&E9;" x="4.00px" y="39.00px" style="stroke:none;clip-path:url(#424_text_clipper);font-family:Microsoft Sans Serif;fill:rgb(0,0,0);font-size:8.25pt;opacity:1;"><tspan dy="8.25pt" id="426">Router</tspan></text></g><defs id="clips_hatches_and_gradients"><clipPath id="264_text_clipper"><rect x="324.00" y="39.00" width="19.47" height="13.83" id="265" /></clipPath><clipPath id="273_text_clipper"><rect x="324.00" y="199.00" width="56.56" height="27.65" id="274" /></clipPath><clipPath id="279_text_clipper"><rect x="324.00" y="211.45" width="56.56" height="27.65" id="280" /></clipPath><clipPath id="288_text_clipper"><rect x="324.00" y="279.00" width="37.10" height="13.83" id="289" /></clipPath><clipPath id="297_text_clipper"><rect x="324.00" y="359.00" width="37.10" height="13.83" id="298" /></clipPath><clipPath id="306_text_clipper"><rect x="324.00" y="439.00" width="37.10" height="13.83" id="307" /></clipPath><clipPath id="316_text_clipper"><rect x="244.00" y="39.00" width="31.38" height="13.83" id="317" /></clipPath><clipPath id="327_text_clipper"><rect x="244.00" y="199.00" width="70.42" height="13.83" id="328" /></clipPath><clipPath id="338_text_clipper"><rect x="244.00" y="279.00" width="33.33" height="13.83" id="339" /></clipPath><clipPath id="349_text_clipper"><rect x="244.00" y="359.00" width="33.33" height="13.83" id="350" /></clipPath><clipPath id="360_text_clipper"><rect x="244.00" y="439.00" width="33.33" height="13.83" id="361" /></clipPath><clipPath id="370_text_clipper"><rect x="164.00" y="39.00" width="33.89" height="13.83" id="371" /></clipPath><clipPath id="381_text_clipper"><rect x="164.00" y="279.00" width="52.15" height="13.83" id="382" /></clipPath><clipPath id="391_text_clipper"><rect x="164.00" y="359.00" width="52.15" height="13.83" id="392" /></clipPath><clipPath id="401_text_clipper"><rect x="164.00" y="439.00" width="52.15" height="13.83" id="402" /></clipPath><clipPath id="411_text_clipper"><rect x="84.00" y="39.00" width="71.10" height="13.83" id="412" /></clipPath><clipPath id="424_text_clipper"><rect x="4.00" y="39.00" width="37.67" height="13.83" id="425" /></clipPath></defs></svg>