<?xml version="1.0" standalone="yes"?><!DOCTYPE svg PUBLIC "-//W3C//DTD SVG 1.1//EN" "http://www.w3.org/Graphics/SVG/1.1/DTD/svg11.dtd"[
<!ENTITY E9 'M 31.179 5.2 C 34.9985 11.0918 34.9814 18.682 31.13552 24.557 '><!ENTITY E11 'matrix(1.00 0.00 0.00 1.00 84.00 4.00 ) '><!ENTITY E10 'stroke:rgb(169,169,169);fill:none;stroke-linecap:butt;stroke-miterlimit:9;opacity:1;stroke-width:2;stroke-linejoin:miter;'><!ENTITY E1 'stroke:rgb(169,169,169);fill:none;stroke-linecap:butt;stroke-miterlimit:9;opacity:1;stroke-width:1;stroke-linejoin:miter;'><!ENTITY E2 'matrix(1.00 0.00 0.00 1.00 164.00 4.00 ) '><!ENTITY E6 'stroke:rgb(255,255,255);fill:none;stroke-linecap:butt;stroke-miterlimit:9;opacity:1;stroke-width:2;stroke-linejoin:miter;'><!ENTITY E15 'matrix(1.00 0.00 0.00 1.00 4.00 4.00 ) '><!ENTITY E12 'stroke:none;opacity:1;fill:rgb(91,178,126);'><!ENTITY E4 'stroke:none;opacity:1;fill:rgb(255,255,255);'><!ENTITY E8 'matrix(1.00 0.00 0.00 1.00 0.00 0.00 ) '>
]><svg width="202.1017" height="52.82519" id="SvgGdi_output" xmlns="http://www.w3.org/2000/svg" xmlns:xlink="http://www.w3.org/1999/xlink"><rect id="background" height="100.00%" style="fill:rgb(255,255,255);" width="100.00%" y="0.00" x="0.00" /><g style="shape-rendering:auto;" id="root_group"><line y1="19.00" style="&E1;" id="47" x2="160.00" y2="19.00" x1="118.00" /><line y1="19.00" style="&E1;" id="48" x2="80.00" y2="19.00" x1="38.00" /><ellipse id="49" cy="15.00" cx="15.00" transform="&E2;" rx="15.00" ry="15.00" style="stroke:none;opacity:1;fill:rgb(238,192,75);" /><ellipse id="50" cy="20.29" cx="14.72" transform="&E2;" rx="2.40" ry="2.40" style="&E4;" /><path style="&E6;" transform="&E2;" id="51" d="M 10.082 15.655 C 13.5023 13.0496 16.1727 13.2369 19.3649 15.64395 M 6.568899 12.14155 C 11.9518 7.82015 17.1159 7.63745 22.9119 12.09735 " /><text id="52" transform="&E8;" x="164.00px" y="39.00px" style="stroke:none;clip-path:url(#54_text_clipper);font-family:Microsoft Sans Serif;fill:rgb(0,0,0);font-size:8.25pt;opacity:1;"><tspan dy="8.25pt" id="56">Dealer</tspan></text><path d="&E9;" style="&E10;" transform="&E11;" id="58" /><ellipse id="59" cy="15.00" cx="15.00" transform="&E11;" rx="15.00" ry="15.00" style="&E12;" /><path style="&E6;" transform="&E11;" id="60" d="M 16.849 10.062 23.4027 10.062 M 16.6038 19.6084 23.3505 19.6084 M 12.3075 17.1615 7.5719 21.8971 M 7.577335 17.152 12.31704 21.8917 M 6.564136 10.0047 13.30904 10.0047 M 9.936636 6.6288 9.936636 13.3806 " /><ellipse id="61" cy="16.33" cx="19.93" transform="&E11;" rx="1.30" ry="1.30" style="&E4;" /><ellipse id="62" cy="22.83" cx="19.93" transform="&E11;" rx="1.30" ry="1.30" style="&E4;" /><text id="63" transform="&E8;" x="84.00px" y="39.00px" style="stroke:none;clip-path:url(#65_text_clipper);font-family:Microsoft Sans Serif;fill:rgb(0,0,0);font-size:8.25pt;opacity:1;"><tspan dy="8.25pt" id="67">String</tspan></text><path d="&E9;" style="&E10;" transform="&E15;" id="69" /><ellipse id="70" cy="15.00" cx="15.00" transform="&E15;" rx="15.00" ry="15.00" style="&E12;" /><path transform="&E15;" id="71" d="M 8.5404 18.526 C 8.154759 18.14036 8.426559 17.3734 8.7512 17.0487 9.0693 16.7306 9.8857 16.65478 10.3397 17.03595 L 12.5301 18.80525 12.82094 9.664146 C 12.82094 9.305857 13.42471 8.739877 14.05254 8.739877 14.79871 8.739877 15.36764 9.316096 15.36764 9.695367 L 15.5586 15.04327 20.0645 16.74627 C 20.25033 16.81 20.49544 16.99536 20.49518 17.22225 L 20.49808 21.04985 19.11318 23.37955 19.11318 24.51755 13.23218 24.51755 13.23218 23.37955 z " style="stroke:none;fill-rule:evenodd;opacity:1;fill:rgb(255,255,255);" /><path style="&E6;" transform="&E15;" id="72" d="M 10.482 12.156 C 9.063601 9.8878 10.57304 6.5688 13.2149 6.1474 15.8164 5.52346 18.4832 8.0098 18.0432 10.6485 L 17.97693 11.02591 " /><text id="73" transform="&E8;" x="4.00px" y="39.00px" style="stroke:none;clip-path:url(#75_text_clipper);font-family:Microsoft Sans Serif;fill:rgb(0,0,0);font-size:8.25pt;opacity:1;"><tspan dy="8.25pt" id="77">KeyDown</tspan></text></g><defs id="clips_hatches_and_gradients"><clipPath id="54_text_clipper"><rect x="164.00" y="39.00" width="37.10" height="13.83" id="55" /></clipPath><clipPath id="65_text_clipper"><rect x="84.00" y="39.00" width="33.33" height="13.83" id="66" /></clipPath><clipPath id="75_text_clipper"><rect x="4.00" y="39.00" width="52.15" height="13.83" id="76" /></clipPath></defs></svg>