<?xml version="1.0" standalone="yes"?><!DOCTYPE svg PUBLIC "-//W3C//DTD SVG 1.1//EN" "http://www.w3.org/Graphics/SVG/1.1/DTD/svg11.dtd"[
<!ENTITY E3 'stroke:none;opacity:1;fill:rgb(68,154,223);'><!ENTITY E45 'matrix(1.00 0.00 0.00 1.00 84.00 324.00 ) '><!ENTITY E43 'matrix(1.00 0.00 0.00 1.00 84.00 244.00 ) '><!ENTITY E13 'matrix(1.00 0.00 0.00 1.00 244.00 164.00 ) '><!ENTITY E9 'matrix(1.00 0.00 0.00 1.00 244.00 84.00 ) '><!ENTITY E8 'matrix(1.00 0.00 0.00 1.00 0.00 0.00 ) '><!ENTITY E22 'stroke:none;fill-rule:evenodd;opacity:1;fill:rgb(255,255,255);'><!ENTITY E29 'stroke:rgb(169,169,169);fill:none;stroke-linecap:butt;stroke-miterlimit:9;opacity:1;stroke-width:2;stroke-linejoin:miter;'><!ENTITY E24 'M 5.5001 19.484 10.6493 19.484 16.2743 10.2485 19.3728 10.2485 M 14.6769 17.1481 16.3089 19.4828 19.2202 19.4828 M 5.500199 10.2437 10.7586 10.2437 12.1652 12.8707 '><!ENTITY E21 'M 19.156 13.888 19.156 10.3647 19.156 6.841399 25.2585 10.3647 22.2072 12.1264 z '><!ENTITY E23 'M 19.156 22.97 19.156 19.4467 19.156 15.9234 25.2585 19.4467 22.2072 21.2084 z '><!ENTITY E5 'stroke:rgb(255,255,255);fill:none;stroke-linecap:butt;stroke-miterlimit:9;opacity:1;stroke-width:2;stroke-linejoin:miter;'><!ENTITY E1 'stroke:rgb(169,169,169);fill:none;stroke-linecap:butt;stroke-miterlimit:9;opacity:1;stroke-width:1;stroke-linejoin:miter;'><!ENTITY E4 'M 16.849 10.062 23.4027 10.062 M 16.6038 19.6084 23.3505 19.6084 M 12.3075 17.1615 7.5719 21.8971 M 7.577335 17.152 12.31704 21.8917 M 6.564136 10.0047 13.30904 10.0047 M 9.936636 6.6288 9.936636 13.3806 '><!ENTITY E47 'matrix(1.00 0.00 0.00 1.00 4.00 4.00 ) '><!ENTITY E6 'stroke:none;opacity:1;fill:rgb(255,255,255);'><!ENTITY E20 'matrix(1.00 0.00 0.00 1.00 164.00 4.00 ) '><!ENTITY E30 'matrix(1.00 0.00 0.00 1.00 164.00 164.00 ) '><!ENTITY E18 'matrix(1.00 0.00 0.00 1.00 244.00 324.00 ) '><!ENTITY E2 'matrix(1.00 0.00 0.00 1.00 244.00 4.00 ) '><!ENTITY E26 'matrix(1.00 0.00 0.00 1.00 164.00 84.00 ) '><!ENTITY E35 'matrix(1.00 0.00 0.00 1.00 164.00 324.00 ) '><!ENTITY E40 'M 8.5404 18.526 C 8.154759 18.14036 8.426559 17.3734 8.7512 17.0487 9.0693 16.7306 9.8857 16.65478 10.3397 17.03595 L 12.5301 18.80525 12.82094 9.664146 C 12.82094 9.305857 13.42471 8.739877 14.05254 8.739877 14.79871 8.739877 15.36764 9.316096 15.36764 9.695367 L 15.5586 15.04327 20.0645 16.74627 C 20.25033 16.81 20.49544 16.99536 20.49518 17.22225 L 20.49808 21.04985 19.11318 23.37955 19.11318 24.51755 13.23218 24.51755 13.23218 23.37955 z '><!ENTITY E10 'M 10.082 15.655 C 13.5023 13.0496 16.1727 13.2369 19.3649 15.64395 M 6.568899 12.14155 C 11.9518 7.82015 17.1159 7.63745 22.9119 12.09735 '><!ENTITY E16 'matrix(1.00 0.00 0.00 1.00 244.00 244.00 ) '><!ENTITY E39 'matrix(1.00 0.00 0.00 1.00 84.00 164.00 ) '><!ENTITY E37 'matrix(1.00 0.00 0.00 1.00 84.00 4.00 ) '><!ENTITY E14 'stroke:none;opacity:1;fill:rgb(238,192,75);'><!ENTITY E31 'stroke:none;opacity:1;fill:rgb(91,178,126);'><!ENTITY E41 'M 10.482 12.156 C 9.063601 9.8878 10.57304 6.5688 13.2149 6.1474 15.8164 5.52346 18.4832 8.0098 18.0432 10.6485 L 17.97693 11.02591 '><!ENTITY E33 'matrix(1.00 0.00 0.00 1.00 164.00 244.00 ) '><!ENTITY E28 'M 31.179 5.2 C 34.9985 11.0918 34.9814 18.682 31.13552 24.557 '>
]><svg width="301.5558" height="372.8252" id="SvgGdi_output" xmlns="http://www.w3.org/2000/svg" xmlns:xlink="http://www.w3.org/1999/xlink"><rect id="background" height="100.00%" style="fill:rgb(255,255,255);" width="100.00%" y="0.00" x="0.00" /><g style="shape-rendering:auto;" id="root_group"><line y1="19.00" style="&E1;" id="53" x2="240.00" y2="19.00" x1="198.00" /><line y1="99.00" style="&E1;" id="54" x2="240.00" y2="99.00" x1="198.00" /><line y1="179.00" style="&E1;" id="55" x2="240.00" y2="179.00" x1="198.00" /><line y1="259.00" style="&E1;" id="56" x2="240.00" y2="259.00" x1="198.00" /><line y1="339.00" style="&E1;" id="57" x2="240.00" y2="339.00" x1="198.00" /><line y1="19.00" style="&E1;" id="58" x2="160.00" y2="19.00" x1="118.00" /><line y1="99.00" style="&E1;" id="59" x2="160.00" y2="99.00" x1="118.00" /><line y1="179.00" style="&E1;" id="60" x2="160.00" y2="179.00" x1="118.00" /><line y1="259.00" style="&E1;" id="61" x2="160.00" y2="259.00" x1="118.00" /><line y1="339.00" style="&E1;" id="62" x2="160.00" y2="339.00" x1="118.00" /><line y1="19.00" style="&E1;" id="63" x2="80.00" y2="19.00" x1="38.00" /><line y1="19.00" style="&E1;" id="64" x2="80.00" y2="99.00" x1="38.00" /><ellipse id="65" cy="15.00" cx="15.00" transform="&E2;" rx="15.00" ry="15.00" style="&E3;" /><path d="&E4;" style="&E5;" transform="&E2;" id="66" /><ellipse id="67" cy="16.33" cx="19.93" transform="&E2;" rx="1.30" ry="1.30" style="&E6;" /><ellipse id="68" cy="22.83" cx="19.93" transform="&E2;" rx="1.30" ry="1.30" style="&E6;" /><text id="69" transform="&E8;" x="244.00px" y="39.00px" style="stroke:none;clip-path:url(#71_text_clipper);font-family:Microsoft Sans Serif;fill:rgb(0,0,0);font-size:8.25pt;opacity:1;"><tspan dy="8.25pt" id="73">Index</tspan></text><ellipse id="75" cy="15.00" cx="15.00" transform="&E9;" rx="15.00" ry="15.00" style="&E3;" /><ellipse id="76" cy="20.29" cx="14.72" transform="&E9;" rx="2.40" ry="2.40" style="&E6;" /><path d="&E10;" style="&E5;" transform="&E9;" id="77" /><text id="78" transform="&E8;" x="244.00px" y="119.00px" style="stroke:none;clip-path:url(#80_text_clipper);font-family:Microsoft Sans Serif;fill:rgb(0,0,0);font-size:8.25pt;opacity:1;"><tspan dy="8.25pt" id="82">ConvertTo</tspan></text><text id="84" transform="&E8;" x="244.00px" y="131.45px" style="stroke:none;clip-path:url(#86_text_clipper);font-family:Microsoft Sans Serif;fill:rgb(0,0,0);font-size:8.25pt;opacity:1;"><tspan dy="8.25pt" id="88">String</tspan></text><ellipse id="90" cy="15.00" cx="15.00" transform="&E13;" rx="15.00" ry="15.00" style="&E14;" /><ellipse id="91" cy="20.29" cx="14.72" transform="&E13;" rx="2.40" ry="2.40" style="&E6;" /><path d="&E10;" style="&E5;" transform="&E13;" id="92" /><text id="93" transform="&E8;" x="244.00px" y="199.00px" style="stroke:none;clip-path:url(#95_text_clipper);font-family:Microsoft Sans Serif;fill:rgb(0,0,0);font-size:8.25pt;opacity:1;"><tspan dy="8.25pt" id="97">Dealer</tspan></text><ellipse id="99" cy="15.00" cx="15.00" transform="&E16;" rx="15.00" ry="15.00" style="&E14;" /><ellipse id="100" cy="20.29" cx="14.72" transform="&E16;" rx="2.40" ry="2.40" style="&E6;" /><path d="&E10;" style="&E5;" transform="&E16;" id="101" /><text id="102" transform="&E8;" x="244.00px" y="279.00px" style="stroke:none;clip-path:url(#104_text_clipper);font-family:Microsoft Sans Serif;fill:rgb(0,0,0);font-size:8.25pt;opacity:1;"><tspan dy="8.25pt" id="106">Dealer</tspan></text><ellipse id="108" cy="15.00" cx="15.00" transform="&E18;" rx="15.00" ry="15.00" style="&E14;" /><ellipse id="109" cy="20.29" cx="14.72" transform="&E18;" rx="2.40" ry="2.40" style="&E6;" /><path d="&E10;" style="&E5;" transform="&E18;" id="110" /><text id="111" transform="&E8;" x="244.00px" y="359.00px" style="stroke:none;clip-path:url(#113_text_clipper);font-family:Microsoft Sans Serif;fill:rgb(0,0,0);font-size:8.25pt;opacity:1;"><tspan dy="8.25pt" id="115">Dealer</tspan></text><ellipse id="117" cy="15.00" cx="15.00" transform="&E20;" rx="15.00" ry="15.00" style="&E3;" /><path d="&E21;" style="&E22;" transform="&E20;" id="118" /><path d="&E23;" style="&E22;" transform="&E20;" id="119" /><path d="&E24;" style="&E5;" transform="&E20;" id="120" /><text id="121" transform="&E8;" x="164.00px" y="39.00px" style="stroke:none;clip-path:url(#123_text_clipper);font-family:Microsoft Sans Serif;fill:rgb(0,0,0);font-size:8.25pt;opacity:1;"><tspan dy="8.25pt" id="125">Buffer</tspan></text><ellipse id="127" cy="15.00" cx="15.00" transform="&E26;" rx="15.00" ry="15.00" style="&E3;" /><path d="&E21;" style="&E22;" transform="&E26;" id="128" /><path d="&E23;" style="&E22;" transform="&E26;" id="129" /><path d="&E24;" style="&E5;" transform="&E26;" id="130" /><text id="131" transform="&E8;" x="164.00px" y="119.00px" style="stroke:none;clip-path:url(#133_text_clipper);font-family:Microsoft Sans Serif;fill:rgb(0,0,0);font-size:8.25pt;opacity:1;"><tspan dy="8.25pt" id="135">Request.Last</tspan></text><path d="&E28;" style="&E29;" transform="&E30;" id="137" /><ellipse id="138" cy="15.00" cx="15.00" transform="&E30;" rx="15.00" ry="15.00" style="&E31;" /><path d="&E4;" style="&E5;" transform="&E30;" id="139" /><ellipse id="140" cy="16.33" cx="19.93" transform="&E30;" rx="1.30" ry="1.30" style="&E6;" /><ellipse id="141" cy="22.83" cx="19.93" transform="&E30;" rx="1.30" ry="1.30" style="&E6;" /><text id="142" transform="&E8;" x="164.00px" y="199.00px" style="stroke:none;clip-path:url(#144_text_clipper);font-family:Microsoft Sans Serif;fill:rgb(0,0,0);font-size:8.25pt;opacity:1;"><tspan dy="8.25pt" id="146">String</tspan></text><path d="&E28;" style="&E29;" transform="&E33;" id="148" /><ellipse id="149" cy="15.00" cx="15.00" transform="&E33;" rx="15.00" ry="15.00" style="&E31;" /><path d="&E4;" style="&E5;" transform="&E33;" id="150" /><ellipse id="151" cy="16.33" cx="19.93" transform="&E33;" rx="1.30" ry="1.30" style="&E6;" /><ellipse id="152" cy="22.83" cx="19.93" transform="&E33;" rx="1.30" ry="1.30" style="&E6;" /><text id="153" transform="&E8;" x="164.00px" y="279.00px" style="stroke:none;clip-path:url(#155_text_clipper);font-family:Microsoft Sans Serif;fill:rgb(0,0,0);font-size:8.25pt;opacity:1;"><tspan dy="8.25pt" id="157">String</tspan></text><path d="&E28;" style="&E29;" transform="&E35;" id="159" /><ellipse id="160" cy="15.00" cx="15.00" transform="&E35;" rx="15.00" ry="15.00" style="&E31;" /><path d="&E4;" style="&E5;" transform="&E35;" id="161" /><ellipse id="162" cy="16.33" cx="19.93" transform="&E35;" rx="1.30" ry="1.30" style="&E6;" /><ellipse id="163" cy="22.83" cx="19.93" transform="&E35;" rx="1.30" ry="1.30" style="&E6;" /><text id="164" transform="&E8;" x="164.00px" y="359.00px" style="stroke:none;clip-path:url(#166_text_clipper);font-family:Microsoft Sans Serif;fill:rgb(0,0,0);font-size:8.25pt;opacity:1;"><tspan dy="8.25pt" id="168">String</tspan></text><ellipse id="170" cy="15.00" cx="15.00" transform="&E37;" rx="15.00" ry="15.00" style="&E3;" /><path d="&E21;" style="&E22;" transform="&E37;" id="171" /><path d="&E23;" style="&E22;" transform="&E37;" id="172" /><path d="&E24;" style="&E5;" transform="&E37;" id="173" /><text id="174" transform="&E8;" x="84.00px" y="39.00px" style="stroke:none;clip-path:url(#176_text_clipper);font-family:Microsoft Sans Serif;fill:rgb(0,0,0);font-size:8.25pt;opacity:1;"><tspan dy="8.25pt" id="178">Request.First</tspan></text><line y1="99.00" style="&E1;" id="180" x2="118.00" y2="99.00" x1="80.00" /><path d="&E28;" style="&E29;" transform="&E39;" id="181" /><ellipse id="182" cy="15.00" cx="15.00" transform="&E39;" rx="15.00" ry="15.00" style="&E31;" /><path d="&E40;" style="&E22;" transform="&E39;" id="183" /><path d="&E41;" style="&E5;" transform="&E39;" id="184" /><text id="185" transform="&E8;" x="84.00px" y="199.00px" style="stroke:none;clip-path:url(#187_text_clipper);font-family:Microsoft Sans Serif;fill:rgb(0,0,0);font-size:8.25pt;opacity:1;"><tspan dy="8.25pt" id="189">KeyDown</tspan></text><path d="&E28;" style="&E29;" transform="&E43;" id="191" /><ellipse id="192" cy="15.00" cx="15.00" transform="&E43;" rx="15.00" ry="15.00" style="&E31;" /><path d="&E40;" style="&E22;" transform="&E43;" id="193" /><path d="&E41;" style="&E5;" transform="&E43;" id="194" /><text id="195" transform="&E8;" x="84.00px" y="279.00px" style="stroke:none;clip-path:url(#197_text_clipper);font-family:Microsoft Sans Serif;fill:rgb(0,0,0);font-size:8.25pt;opacity:1;"><tspan dy="8.25pt" id="199">KeyDown</tspan></text><path d="&E28;" style="&E29;" transform="&E45;" id="201" /><ellipse id="202" cy="15.00" cx="15.00" transform="&E45;" rx="15.00" ry="15.00" style="&E31;" /><path d="&E40;" style="&E22;" transform="&E45;" id="203" /><path d="&E41;" style="&E5;" transform="&E45;" id="204" /><text id="205" transform="&E8;" x="84.00px" y="359.00px" style="stroke:none;clip-path:url(#207_text_clipper);font-family:Microsoft Sans Serif;fill:rgb(0,0,0);font-size:8.25pt;opacity:1;"><tspan dy="8.25pt" id="209">KeyDown</tspan></text><path d="&E28;" style="&E29;" transform="&E47;" id="211" /><ellipse id="212" cy="15.00" cx="15.00" transform="&E47;" rx="15.00" ry="15.00" style="&E31;" /><ellipse id="213" cy="20.29" cx="14.72" transform="&E47;" rx="2.40" ry="2.40" style="&E6;" /><path d="&E10;" style="&E5;" transform="&E47;" id="214" /><ellipse id="215" cy="19.00" cx="4.00" rx="3.00" ry="3.00" style="&E29;" /><ellipse id="216" cy="19.00" cx="4.00" rx="3.00" ry="3.00" style="&E6;" /><text id="217" transform="&E8;" x="4.00px" y="39.00px" style="stroke:none;clip-path:url(#219_text_clipper);font-family:Microsoft Sans Serif;fill:rgb(0,0,0);font-size:8.25pt;opacity:1;"><tspan dy="8.25pt" id="221">Router</tspan></text></g><defs id="clips_hatches_and_gradients"><clipPath id="71_text_clipper"><rect x="244.00" y="39.00" width="31.38" height="13.83" id="72" /></clipPath><clipPath id="80_text_clipper"><rect x="244.00" y="119.00" width="56.56" height="27.65" id="81" /></clipPath><clipPath id="86_text_clipper"><rect x="244.00" y="131.45" width="56.56" height="27.65" id="87" /></clipPath><clipPath id="95_text_clipper"><rect x="244.00" y="199.00" width="37.10" height="13.83" id="96" /></clipPath><clipPath id="104_text_clipper"><rect x="244.00" y="279.00" width="37.10" height="13.83" id="105" /></clipPath><clipPath id="113_text_clipper"><rect x="244.00" y="359.00" width="37.10" height="13.83" id="114" /></clipPath><clipPath id="123_text_clipper"><rect x="164.00" y="39.00" width="33.89" height="13.83" id="124" /></clipPath><clipPath id="133_text_clipper"><rect x="164.00" y="119.00" width="70.42" height="13.83" id="134" /></clipPath><clipPath id="144_text_clipper"><rect x="164.00" y="199.00" width="33.33" height="13.83" id="145" /></clipPath><clipPath id="155_text_clipper"><rect x="164.00" y="279.00" width="33.33" height="13.83" id="156" /></clipPath><clipPath id="166_text_clipper"><rect x="164.00" y="359.00" width="33.33" height="13.83" id="167" /></clipPath><clipPath id="176_text_clipper"><rect x="84.00" y="39.00" width="71.10" height="13.83" id="177" /></clipPath><clipPath id="187_text_clipper"><rect x="84.00" y="199.00" width="52.15" height="13.83" id="188" /></clipPath><clipPath id="197_text_clipper"><rect x="84.00" y="279.00" width="52.15" height="13.83" id="198" /></clipPath><clipPath id="207_text_clipper"><rect x="84.00" y="359.00" width="52.15" height="13.83" id="208" /></clipPath><clipPath id="219_text_clipper"><rect x="4.00" y="39.00" width="37.67" height="13.83" id="220" /></clipPath></defs></svg>