<?xml version="1.0" standalone="yes"?><!DOCTYPE svg PUBLIC "-//W3C//DTD SVG 1.1//EN" "http://www.w3.org/Graphics/SVG/1.1/DTD/svg11.dtd"[
<!ENTITY E64 'matrix(1.00 0.00 0.00 1.00 164.00 4.00 ) '><!ENTITY E5 'stroke:none;opacity:1;fill:rgb(155,91,179);'><!ENTITY E42 'stroke:none;opacity:1;fill:rgb(91,178,126);'><!ENTITY E7 'stroke:none;fill-rule:evenodd;opacity:1;fill:rgb(255,255,255);'><!ENTITY E26 'matrix(1.00 0.00 0.00 1.00 484.00 324.00 ) '><!ENTITY E45 'matrix(1.00 0.00 0.00 1.00 404.00 404.00 ) '><!ENTITY E3 'stroke:rgb(169,169,169);fill:none;stroke-linecap:butt;stroke-miterlimit:9;opacity:1;stroke-width:2;stroke-linejoin:miter;'><!ENTITY E62 'stroke:none;opacity:1;fill:rgb(68,154,223);'><!ENTITY E51 'M 10.482 12.156 C 9.063601 9.8878 10.57304 6.5688 13.2149 6.1474 15.8164 5.52346 18.4832 8.0098 18.0432 10.6485 L 17.97693 11.02591 '><!ENTITY E36 'M 12.246 6.0137 12.246 6.019559 C 12.05806 6.020259 11.89471 6.040434 11.76748 6.066434 10.86869 6.352735 10.89631 6.934374 9.87688 7.685534 8.863379 8.264335 8.35338 7.819914 7.61518 8.419914 6.87845 9.015514 7.39292 10.38251 7.08393 10.64841 6.77722 11.18001 5.82553 11.65471 5.65233 12.32611 5.50916 13.18481 6.04191 13.79701 6.02147 14.53311 6.08287 15.14641 5.41127 15.49489 5.5078 15.99211 5.79702 16.80421 6.35438 17.29221 6.6172 17.51751 6.663351 17.54951 6.700028 17.5985 6.714856 17.6015 6.790713 17.792 6.858586 17.98645 6.955086 18.16595 6.949606 18.13995 6.948576 18.11382 6.943367 18.08782 6.998228 18.30542 7.055077 18.52401 7.132816 18.73821 8.683116 22.09901 12.81412 24.68611 17.34182 24.11711 19.54102 23.84771 22.82442 22.33171 24.16602 18.73821 23.22044 19.58671 21.53152 20.32421 20.77732 20.38081 23.33002 19.10511 24.70712 16.93741 24.32031 13.97461 23.79154 15.23341 23.09341 16.20131 22.22071 16.86521 24.07451 13.97551 23.75691 12.48131 22.38478 10.83981 23.36615 13.53881 22.09719 16.53431 19.33208 18.66401 20.45238 18.78541 21.51657 18.51614 22.50198 17.71284 21.01318 19.37354 19.14968 20.20834 17.01368 20.43554 18.03358 21.30254 19.01818 21.69454 19.95898 21.52734 17.34458 22.24884 15.15478 21.45428 12.49018 18.80074 12.3507 19.51504 13.10514 20.62754 13.88278 21.33784 9.373278 19.38284 8.976177 13.29584 14.46872 11.79294 14.47202 11.79294 14.47518 11.79384 14.47848 11.79294 17.74978 13.70674 21.86528 13.58084 22.05078 12.34372 22.50885 10.86082 19.96508 7.805223 16.16208 7.007823 15.4618 6.871123 14.79228 6.817344 14.15428 6.835943 14.16706 6.835943 14.17858 6.836182 14.19139 6.826178 13.58399 6.177278 12.80989 6.011678 12.24609 6.013678 z M 17.17769 9.046878 C 17.72373 9.046878 18.22259 9.543848 18.22259 10.08988 18.22259 10.63598 17.72371 11.13288 17.17769 11.13288 16.63165 11.13288 16.13469 10.63601 16.13469 10.08988 16.13474 9.543879 16.63162 9.046778 17.17769 9.046878 z '><!ENTITY E53 'matrix(1.00 0.00 0.00 1.00 324.00 4.00 ) '><!ENTITY E1 'stroke:rgb(169,169,169);fill:none;stroke-linecap:butt;stroke-miterlimit:9;opacity:1;stroke-width:1;stroke-linejoin:miter;'><!ENTITY E16 'M 14.876 5.6408 14.876 24.0228 '><!ENTITY E29 'matrix(1.00 0.00 0.00 1.00 484.00 404.00 ) '><!ENTITY E43 'M 16.849 10.062 23.4027 10.062 M 16.6038 19.6084 23.3505 19.6084 M 12.3075 17.1615 7.5719 21.8971 M 7.577335 17.152 12.31704 21.8917 M 6.564136 10.0047 13.30904 10.0047 M 9.936636 6.6288 9.936636 13.3806 '><!ENTITY E49 'matrix(1.00 0.00 0.00 1.00 404.00 564.00 ) '><!ENTITY E2 'M 10.158 33.2 C 3.4054 31.7591 -1.861 26.4692 -3.271 19.71 '><!ENTITY E57 'matrix(1.00 0.00 0.00 1.00 324.00 404.00 ) '><!ENTITY E69 'matrix(1.00 0.00 0.00 1.00 84.00 4.00 ) '><!ENTITY E33 'matrix(1.00 0.00 0.00 1.00 484.00 564.00 ) '><!ENTITY E17 'stroke:rgb(255,255,255);fill:none;stroke-linecap:butt;stroke-miterlimit:9;opacity:1;stroke-width:2;stroke-linejoin:miter;'><!ENTITY E4 'matrix(1.00 0.00 0.00 1.00 484.00 4.00 ) '><!ENTITY E71 'matrix(1.00 0.00 0.00 1.00 4.00 4.00 ) '><!ENTITY E47 'matrix(1.00 0.00 0.00 1.00 404.00 484.00 ) '><!ENTITY E18 'stroke:none;opacity:1;fill:rgb(255,255,255);'><!ENTITY E59 'matrix(1.00 0.00 0.00 1.00 324.00 484.00 ) '><!ENTITY E6 'M 11.656 8.2 11.99975 8.7 16.31225 14.7937 11.65605 21.4187 11.28105 21.9187 14.74985 21.9187 14.8436 21.7624 17.9998 17.0124 18.46855 17.7 21.15605 21.7624 21.2498 21.9187 24.7498 21.9187 24.40605 21.4187 19.65605 14.6687 24.06225 8.699997 24.406 8.199997 20.9998 8.199997 20.90605 8.324997 18.68725 11.4187 C 18.46251 11.7285 18.22333 12.1062 17.9685 12.4812 17.77046 12.1547 17.58677 11.8424 17.31225 11.4187 L 15.28105 8.356197 15.1873 8.199997 11.6561 8.199997 z '><!ENTITY E22 'stroke:rgb(255,255,255);fill:none;stroke-linecap:butt;stroke-miterlimit:9;opacity:1;stroke-width:1.2496;stroke-linejoin:miter;'><!ENTITY E38 'matrix(1.00 0.00 0.00 1.00 404.00 244.00 ) '><!ENTITY E31 'matrix(1.00 0.00 0.00 1.00 484.00 484.00 ) '><!ENTITY E14 'matrix(1.00 0.00 0.00 1.00 484.00 164.00 ) '><!ENTITY E27 'M 10.082 15.655 C 13.5023 13.0496 16.1727 13.2369 19.3649 15.64395 M 6.568899 12.14155 C 11.9518 7.82015 17.1159 7.63745 22.9119 12.09735 '><!ENTITY E41 'matrix(1.00 0.00 0.00 1.00 404.00 324.00 ) '><!ENTITY E40 'M 31.179 5.2 C 34.9985 11.0918 34.9814 18.682 31.13552 24.557 '><!ENTITY E50 'M 8.5404 18.526 C 8.154759 18.14036 8.426559 17.3734 8.7512 17.0487 9.0693 16.7306 9.8857 16.65478 10.3397 17.03595 L 12.5301 18.80525 12.82094 9.664146 C 12.82094 9.305857 13.42471 8.739877 14.05254 8.739877 14.79871 8.739877 15.36764 9.316096 15.36764 9.695367 L 15.5586 15.04327 20.0645 16.74627 C 20.25033 16.81 20.49544 16.99536 20.49518 17.22225 L 20.49808 21.04985 19.11318 23.37955 19.11318 24.51755 13.23218 24.51755 13.23218 23.37955 z '><!ENTITY E12 'matrix(1.00 0.00 0.00 1.00 0.00 0.00 ) '><!ENTITY E20 'matrix(1.00 0.00 0.00 1.00 484.00 244.00 ) '><!ENTITY E55 'matrix(1.00 0.00 0.00 1.00 324.00 324.00 ) '><!ENTITY E35 'matrix(1.00 0.00 0.00 1.00 404.00 4.00 ) '><!ENTITY E15 'stroke:none;opacity:1;fill:rgb(238,192,75);'><!ENTITY E61 'matrix(1.00 0.00 0.00 1.00 244.00 4.00 ) '>
]><svg width="557.9323" height="612.8252" id="SvgGdi_output" xmlns="http://www.w3.org/2000/svg" xmlns:xlink="http://www.w3.org/1999/xlink"><rect id="background" height="100.00%" style="fill:rgb(255,255,255);" width="100.00%" y="0.00" x="0.00" /><g style="shape-rendering:auto;" id="root_group"><line y1="19.00" style="&E1;" id="1559" x2="480.00" y2="19.00" x1="438.00" /><line y1="179.00" style="&E1;" id="1560" x2="480.00" y2="179.00" x1="438.00" /><line y1="259.00" style="&E1;" id="1561" x2="480.00" y2="259.00" x1="438.00" /><line y1="339.00" style="&E1;" id="1562" x2="480.00" y2="339.00" x1="438.00" /><line y1="419.00" style="&E1;" id="1563" x2="480.00" y2="419.00" x1="438.00" /><line y1="499.00" style="&E1;" id="1564" x2="480.00" y2="499.00" x1="438.00" /><line y1="579.00" style="&E1;" id="1565" x2="480.00" y2="579.00" x1="438.00" /><line y1="19.00" style="&E1;" id="1566" x2="400.00" y2="19.00" x1="358.00" /><line y1="179.00" style="&E1;" id="1567" x2="400.00" y2="179.00" x1="358.00" /><line y1="259.00" style="&E1;" id="1568" x2="400.00" y2="259.00" x1="358.00" /><line y1="339.00" style="&E1;" id="1569" x2="400.00" y2="339.00" x1="358.00" /><line y1="419.00" style="&E1;" id="1570" x2="400.00" y2="419.00" x1="358.00" /><line y1="499.00" style="&E1;" id="1571" x2="400.00" y2="499.00" x1="358.00" /><line y1="19.00" style="&E1;" id="1572" x2="320.00" y2="19.00" x1="278.00" /><line y1="99.00" style="&E1;" id="1573" x2="320.00" y2="19.00" x1="278.00" /><line y1="179.00" style="&E1;" id="1574" x2="320.00" y2="179.00" x1="278.00" /><line y1="259.00" style="&E1;" id="1575" x2="320.00" y2="259.00" x1="278.00" /><line y1="19.00" style="&E1;" id="1576" x2="240.00" y2="19.00" x1="198.00" /><line y1="19.00" style="&E1;" id="1577" x2="240.00" y2="99.00" x1="198.00" /><line y1="179.00" style="&E1;" id="1578" x2="240.00" y2="179.00" x1="198.00" /><line y1="259.00" style="&E1;" id="1579" x2="240.00" y2="259.00" x1="198.00" /><line y1="19.00" style="&E1;" id="1580" x2="160.00" y2="19.00" x1="118.00" /><line y1="19.00" style="&E1;" id="1581" x2="160.00" y2="179.00" x1="118.00" /><line y1="19.00" style="&E1;" id="1582" x2="160.00" y2="259.00" x1="118.00" /><line y1="19.00" style="&E1;" id="1583" x2="80.00" y2="19.00" x1="38.00" /><path d="&E2;" style="&E3;" transform="&E4;" id="1584" /><ellipse id="1585" cy="15.00" cx="15.00" transform="&E4;" rx="15.00" ry="15.00" style="&E5;" /><path d="&E6;" style="&E7;" transform="&E4;" id="1586" /><path transform="&E4;" id="1587" style="stroke:rgb(255,255,255);fill:none;stroke-linecap:butt;stroke-miterlimit:9;opacity:1;stroke-width:1.293;stroke-linejoin:miter;" d="M 11.351 13.1 C 11.42444 15.0467 9.308 16.6165 7.4668 15.9895 5.5828 15.49973 4.6834 13.0225 5.8159 11.4387 6.34572 10.62381 7.2864 10.1022 8.257999 10.0842 " /><path style="&E7;" transform="&E4;" id="1588" d="M 8.0275 12.161 8.0275 8.2818 11.387 10.2214 9.7072 11.19124 z " /><text id="1589" transform="&E12;" x="484.00px" y="39.00px" style="stroke:none;clip-path:url(#1591_text_clipper);font-family:Microsoft Sans Serif;fill:rgb(0,0,0);font-size:8.25pt;opacity:1;"><tspan dy="8.25pt" id="1593">Client</tspan></text><text id="1595" transform="&E12;" x="484.00px" y="51.45px" style="stroke:none;clip-path:url(#1597_text_clipper);font-family:Microsoft Sans Serif;fill:rgb(0,0,0);font-size:8.25pt;opacity:1;"><tspan dy="8.25pt" id="1599">Addresses</tspan></text><ellipse id="1601" cy="15.00" cx="15.00" transform="&E14;" rx="15.00" ry="15.00" style="&E15;" /><ellipse id="1602" cy="15.00" cx="15.00" transform="&E14;" rx="15.00" ry="15.00" style="&E3;" /><path d="&E16;" style="&E17;" transform="&E14;" id="1603" /><ellipse id="1604" cy="10.20" cx="8.47" transform="&E14;" rx="3.40" ry="3.40" style="&E18;" /><ellipse id="1605" cy="10.20" cx="21.33" transform="&E14;" rx="3.40" ry="3.40" style="&E18;" /><ellipse id="1606" cy="19.20" cx="21.33" transform="&E14;" rx="3.40" ry="3.40" style="&E18;" /><text id="1607" transform="&E12;" x="484.00px" y="199.00px" style="stroke:none;clip-path:url(#1609_text_clipper);font-family:Microsoft Sans Serif;fill:rgb(0,0,0);font-size:8.25pt;opacity:1;"><tspan dy="8.25pt" id="1611">BounceBack</tspan></text><path d="&E2;" style="&E3;" transform="&E20;" id="1613" /><ellipse id="1614" cy="15.00" cx="15.00" transform="&E20;" rx="15.00" ry="15.00" style="&E5;" /><path d="&E6;" style="&E7;" transform="&E20;" id="1615" /><path style="&E22;" transform="&E20;" id="1616" d="M 7.8593 10.494 8.8954 9.65137 13.0189 14.72177 11.9886 15.5597 " /><path style="&E22;" transform="&E20;" id="1617" d="M 5.1002 16.975 7.6877 14.8707 " /><path style="&E7;" transform="&E20;" id="1618" d="M 8.8501 16.342 6.484699 13.4335 10.1863 12.8393 9.518199 14.5907 z " /><text id="1619" transform="&E12;" x="484.00px" y="279.00px" style="stroke:none;clip-path:url(#1621_text_clipper);font-family:Microsoft Sans Serif;fill:rgb(0,0,0);font-size:8.25pt;opacity:1;"><tspan dy="8.25pt" id="1623">NextMessage</tspan></text><ellipse id="1625" cy="15.00" cx="15.00" transform="&E26;" rx="15.00" ry="15.00" style="&E15;" /><ellipse id="1626" cy="20.29" cx="14.72" transform="&E26;" rx="2.40" ry="2.40" style="&E18;" /><path d="&E27;" style="&E17;" transform="&E26;" id="1627" /><text id="1628" transform="&E12;" x="484.00px" y="359.00px" style="stroke:none;clip-path:url(#1630_text_clipper);font-family:Microsoft Sans Serif;fill:rgb(0,0,0);font-size:8.25pt;opacity:1;"><tspan dy="8.25pt" id="1632">Dealer</tspan></text><ellipse id="1634" cy="15.00" cx="15.00" transform="&E29;" rx="15.00" ry="15.00" style="&E15;" /><ellipse id="1635" cy="20.29" cx="14.72" transform="&E29;" rx="2.40" ry="2.40" style="&E18;" /><path d="&E27;" style="&E17;" transform="&E29;" id="1636" /><text id="1637" transform="&E12;" x="484.00px" y="439.00px" style="stroke:none;clip-path:url(#1639_text_clipper);font-family:Microsoft Sans Serif;fill:rgb(0,0,0);font-size:8.25pt;opacity:1;"><tspan dy="8.25pt" id="1641">Dealer</tspan></text><ellipse id="1643" cy="15.00" cx="15.00" transform="&E31;" rx="15.00" ry="15.00" style="&E15;" /><ellipse id="1644" cy="20.29" cx="14.72" transform="&E31;" rx="2.40" ry="2.40" style="&E18;" /><path d="&E27;" style="&E17;" transform="&E31;" id="1645" /><text id="1646" transform="&E12;" x="484.00px" y="519.00px" style="stroke:none;clip-path:url(#1648_text_clipper);font-family:Microsoft Sans Serif;fill:rgb(0,0,0);font-size:8.25pt;opacity:1;"><tspan dy="8.25pt" id="1650">Dealer</tspan></text><ellipse id="1652" cy="15.00" cx="15.00" transform="&E33;" rx="15.00" ry="15.00" style="&E15;" /><ellipse id="1653" cy="15.00" cx="15.00" transform="&E33;" rx="15.00" ry="15.00" style="&E3;" /><path d="&E16;" style="&E17;" transform="&E33;" id="1654" /><ellipse id="1655" cy="10.20" cx="8.47" transform="&E33;" rx="3.40" ry="3.40" style="&E18;" /><ellipse id="1656" cy="10.20" cx="21.33" transform="&E33;" rx="3.40" ry="3.40" style="&E18;" /><ellipse id="1657" cy="19.20" cx="21.33" transform="&E33;" rx="3.40" ry="3.40" style="&E18;" /><text id="1658" transform="&E12;" x="484.00px" y="599.00px" style="stroke:none;clip-path:url(#1660_text_clipper);font-family:Microsoft Sans Serif;fill:rgb(0,0,0);font-size:8.25pt;opacity:1;"><tspan dy="8.25pt" id="1662">SelectMany</tspan></text><ellipse id="1664" cy="15.00" cx="15.00" transform="&E35;" rx="15.00" ry="15.00" style="&E15;" /><path d="&E36;" style="&E7;" transform="&E35;" id="1665" /><text id="1666" transform="&E12;" x="404.00px" y="39.00px" style="stroke:none;clip-path:url(#1668_text_clipper);font-family:Microsoft Sans Serif;fill:rgb(0,0,0);font-size:8.25pt;opacity:1;"><tspan dy="8.25pt" id="1670">DistinctBy</tspan></text><line y1="179.00" style="&E1;" id="1672" x2="438.00" y2="179.00" x1="400.00" /><ellipse id="1673" cy="15.00" cx="15.00" transform="&E38;" rx="15.00" ry="15.00" style="&E15;" /><path d="&E36;" style="&E7;" transform="&E38;" id="1674" /><text id="1675" transform="&E12;" x="404.00px" y="279.00px" style="stroke:none;clip-path:url(#1677_text_clipper);font-family:Microsoft Sans Serif;fill:rgb(0,0,0);font-size:8.25pt;opacity:1;"><tspan dy="8.25pt" id="1679">Skip</tspan></text><path d="&E40;" style="&E3;" transform="&E41;" id="1681" /><ellipse id="1682" cy="15.00" cx="15.00" transform="&E41;" rx="15.00" ry="15.00" style="&E42;" /><path d="&E43;" style="&E17;" transform="&E41;" id="1683" /><ellipse id="1684" cy="16.33" cx="19.93" transform="&E41;" rx="1.30" ry="1.30" style="&E18;" /><ellipse id="1685" cy="22.83" cx="19.93" transform="&E41;" rx="1.30" ry="1.30" style="&E18;" /><text id="1686" transform="&E12;" x="404.00px" y="359.00px" style="stroke:none;clip-path:url(#1688_text_clipper);font-family:Microsoft Sans Serif;fill:rgb(0,0,0);font-size:8.25pt;opacity:1;"><tspan dy="8.25pt" id="1690">String</tspan></text><path d="&E40;" style="&E3;" transform="&E45;" id="1692" /><ellipse id="1693" cy="15.00" cx="15.00" transform="&E45;" rx="15.00" ry="15.00" style="&E42;" /><path d="&E43;" style="&E17;" transform="&E45;" id="1694" /><ellipse id="1695" cy="16.33" cx="19.93" transform="&E45;" rx="1.30" ry="1.30" style="&E18;" /><ellipse id="1696" cy="22.83" cx="19.93" transform="&E45;" rx="1.30" ry="1.30" style="&E18;" /><text id="1697" transform="&E12;" x="404.00px" y="439.00px" style="stroke:none;clip-path:url(#1699_text_clipper);font-family:Microsoft Sans Serif;fill:rgb(0,0,0);font-size:8.25pt;opacity:1;"><tspan dy="8.25pt" id="1701">String</tspan></text><path d="&E40;" style="&E3;" transform="&E47;" id="1703" /><ellipse id="1704" cy="15.00" cx="15.00" transform="&E47;" rx="15.00" ry="15.00" style="&E42;" /><path d="&E43;" style="&E17;" transform="&E47;" id="1705" /><ellipse id="1706" cy="16.33" cx="19.93" transform="&E47;" rx="1.30" ry="1.30" style="&E18;" /><ellipse id="1707" cy="22.83" cx="19.93" transform="&E47;" rx="1.30" ry="1.30" style="&E18;" /><text id="1708" transform="&E12;" x="404.00px" y="519.00px" style="stroke:none;clip-path:url(#1710_text_clipper);font-family:Microsoft Sans Serif;fill:rgb(0,0,0);font-size:8.25pt;opacity:1;"><tspan dy="8.25pt" id="1712">String</tspan></text><path d="&E40;" style="&E3;" transform="&E49;" id="1714" /><ellipse id="1715" cy="15.00" cx="15.00" transform="&E49;" rx="15.00" ry="15.00" style="&E42;" /><path d="&E50;" style="&E7;" transform="&E49;" id="1716" /><path d="&E51;" style="&E17;" transform="&E49;" id="1717" /><text id="1718" transform="&E12;" x="404.00px" y="599.00px" style="stroke:none;clip-path:url(#1720_text_clipper);font-family:Microsoft Sans Serif;fill:rgb(0,0,0);font-size:8.25pt;opacity:1;"><tspan dy="8.25pt" id="1722">KeyDown</tspan></text><ellipse id="1724" cy="15.00" cx="15.00" transform="&E53;" rx="15.00" ry="15.00" style="&E15;" /><path d="&E36;" style="&E7;" transform="&E53;" id="1725" /><ellipse id="1726" cy="19.00" cx="324.00" rx="3.00" ry="3.00" style="&E3;" /><ellipse id="1727" cy="19.00" cx="324.00" rx="3.00" ry="3.00" style="&E18;" /><text id="1728" transform="&E12;" x="324.00px" y="39.00px" style="stroke:none;clip-path:url(#1730_text_clipper);font-family:Microsoft Sans Serif;fill:rgb(0,0,0);font-size:8.25pt;opacity:1;"><tspan dy="8.25pt" id="1732">Zip</tspan></text><line y1="179.00" style="&E1;" id="1734" x2="358.00" y2="179.00" x1="320.00" /><line y1="259.00" style="&E1;" id="1735" x2="358.00" y2="259.00" x1="320.00" /><path d="&E40;" style="&E3;" transform="&E55;" id="1736" /><ellipse id="1737" cy="15.00" cx="15.00" transform="&E55;" rx="15.00" ry="15.00" style="&E42;" /><path d="&E50;" style="&E7;" transform="&E55;" id="1738" /><path d="&E51;" style="&E17;" transform="&E55;" id="1739" /><text id="1740" transform="&E12;" x="324.00px" y="359.00px" style="stroke:none;clip-path:url(#1742_text_clipper);font-family:Microsoft Sans Serif;fill:rgb(0,0,0);font-size:8.25pt;opacity:1;"><tspan dy="8.25pt" id="1744">KeyDown</tspan></text><path d="&E40;" style="&E3;" transform="&E57;" id="1746" /><ellipse id="1747" cy="15.00" cx="15.00" transform="&E57;" rx="15.00" ry="15.00" style="&E42;" /><path d="&E50;" style="&E7;" transform="&E57;" id="1748" /><path d="&E51;" style="&E17;" transform="&E57;" id="1749" /><text id="1750" transform="&E12;" x="324.00px" y="439.00px" style="stroke:none;clip-path:url(#1752_text_clipper);font-family:Microsoft Sans Serif;fill:rgb(0,0,0);font-size:8.25pt;opacity:1;"><tspan dy="8.25pt" id="1754">KeyDown</tspan></text><path d="&E40;" style="&E3;" transform="&E59;" id="1756" /><ellipse id="1757" cy="15.00" cx="15.00" transform="&E59;" rx="15.00" ry="15.00" style="&E42;" /><path d="&E50;" style="&E7;" transform="&E59;" id="1758" /><path d="&E51;" style="&E17;" transform="&E59;" id="1759" /><text id="1760" transform="&E12;" x="324.00px" y="519.00px" style="stroke:none;clip-path:url(#1762_text_clipper);font-family:Microsoft Sans Serif;fill:rgb(0,0,0);font-size:8.25pt;opacity:1;"><tspan dy="8.25pt" id="1764">KeyDown</tspan></text><ellipse id="1766" cy="15.00" cx="15.00" transform="&E61;" rx="15.00" ry="15.00" style="&E62;" /><path d="&E43;" style="&E17;" transform="&E61;" id="1767" /><ellipse id="1768" cy="16.33" cx="19.93" transform="&E61;" rx="1.30" ry="1.30" style="&E18;" /><ellipse id="1769" cy="22.83" cx="19.93" transform="&E61;" rx="1.30" ry="1.30" style="&E18;" /><text id="1770" transform="&E12;" x="244.00px" y="39.00px" style="stroke:none;clip-path:url(#1772_text_clipper);font-family:Microsoft Sans Serif;fill:rgb(0,0,0);font-size:8.25pt;opacity:1;"><tspan dy="8.25pt" id="1774">Index</tspan></text><line y1="99.00" style="&E1;" id="1776" x2="278.00" y2="99.00" x1="240.00" /><line y1="179.00" style="&E1;" id="1777" x2="278.00" y2="179.00" x1="240.00" /><line y1="259.00" style="&E1;" id="1778" x2="278.00" y2="259.00" x1="240.00" /><ellipse id="1779" cy="15.00" cx="15.00" transform="&E64;" rx="15.00" ry="15.00" style="&E62;" /><path style="&E7;" transform="&E64;" id="1780" d="M 19.156 13.888 19.156 10.3647 19.156 6.841399 25.2585 10.3647 22.2072 12.1264 z " /><path style="&E7;" transform="&E64;" id="1781" d="M 19.156 22.97 19.156 19.4467 19.156 15.9234 25.2585 19.4467 22.2072 21.2084 z " /><path style="&E17;" transform="&E64;" id="1782" d="M 5.5001 19.484 10.6493 19.484 16.2743 10.2485 19.3728 10.2485 M 14.6769 17.1481 16.3089 19.4828 19.2202 19.4828 M 5.500199 10.2437 10.7586 10.2437 12.1652 12.8707 " /><text id="1783" transform="&E12;" x="164.00px" y="39.00px" style="stroke:none;clip-path:url(#1785_text_clipper);font-family:Microsoft Sans Serif;fill:rgb(0,0,0);font-size:8.25pt;opacity:1;"><tspan dy="8.25pt" id="1787">First.Buffer</tspan></text><line y1="179.00" style="&E1;" id="1789" x2="198.00" y2="179.00" x1="160.00" /><line y1="259.00" style="&E1;" id="1790" x2="198.00" y2="259.00" x1="160.00" /><path d="&E40;" style="&E3;" transform="&E69;" id="1791" /><ellipse id="1792" cy="15.00" cx="15.00" transform="&E69;" rx="15.00" ry="15.00" style="&E42;" /><ellipse id="1793" cy="20.29" cx="14.72" transform="&E69;" rx="2.40" ry="2.40" style="&E18;" /><path d="&E27;" style="&E17;" transform="&E69;" id="1794" /><text id="1795" transform="&E12;" x="84.00px" y="39.00px" style="stroke:none;clip-path:url(#1797_text_clipper);font-family:Microsoft Sans Serif;fill:rgb(0,0,0);font-size:8.25pt;opacity:1;"><tspan dy="8.25pt" id="1799">Router</tspan></text><path d="&E40;" style="&E3;" transform="&E71;" id="1801" /><ellipse id="1802" cy="15.00" cx="15.00" transform="&E71;" rx="15.00" ry="15.00" style="&E42;" /><path d="&E6;" style="&E7;" transform="&E71;" id="1803" /><ellipse id="1804" cy="12.78" cx="8.79" transform="&E71;" rx="3.00" ry="3.00" style="&E18;" /><text id="1805" transform="&E12;" x="4.00px" y="39.00px" style="stroke:none;clip-path:url(#1807_text_clipper);font-family:Microsoft Sans Serif;fill:rgb(0,0,0);font-size:8.25pt;opacity:1;"><tspan dy="8.25pt" id="1809">Router</tspan></text><text id="1811" transform="&E12;" x="4.00px" y="51.45px" style="stroke:none;clip-path:url(#1813_text_clipper);font-family:Microsoft Sans Serif;fill:rgb(0,0,0);font-size:8.25pt;opacity:1;"><tspan dy="8.25pt" id="1815">Messages</tspan></text></g><defs id="clips_hatches_and_gradients"><clipPath id="1591_text_clipper"><rect x="484.00" y="39.00" width="57.19" height="27.65" id="1592" /></clipPath><clipPath id="1597_text_clipper"><rect x="484.00" y="51.45" width="57.19" height="27.65" id="1598" /></clipPath><clipPath id="1609_text_clipper"><rect x="484.00" y="199.00" width="67.28" height="13.83" id="1610" /></clipPath><clipPath id="1621_text_clipper"><rect x="484.00" y="279.00" width="72.93" height="13.83" id="1622" /></clipPath><clipPath id="1630_text_clipper"><rect x="484.00" y="359.00" width="37.10" height="13.83" id="1631" /></clipPath><clipPath id="1639_text_clipper"><rect x="484.00" y="439.00" width="37.10" height="13.83" id="1640" /></clipPath><clipPath id="1648_text_clipper"><rect x="484.00" y="519.00" width="37.10" height="13.83" id="1649" /></clipPath><clipPath id="1660_text_clipper"><rect x="484.00" y="599.00" width="62.93" height="13.83" id="1661" /></clipPath><clipPath id="1668_text_clipper"><rect x="404.00" y="39.00" width="54.17" height="13.83" id="1669" /></clipPath><clipPath id="1677_text_clipper"><rect x="404.00" y="279.00" width="25.77" height="13.83" id="1678" /></clipPath><clipPath id="1688_text_clipper"><rect x="404.00" y="359.00" width="33.33" height="13.83" id="1689" /></clipPath><clipPath id="1699_text_clipper"><rect x="404.00" y="439.00" width="33.33" height="13.83" id="1700" /></clipPath><clipPath id="1710_text_clipper"><rect x="404.00" y="519.00" width="33.33" height="13.83" id="1711" /></clipPath><clipPath id="1720_text_clipper"><rect x="404.00" y="599.00" width="52.15" height="13.83" id="1721" /></clipPath><clipPath id="1730_text_clipper"><rect x="324.00" y="39.00" width="19.47" height="13.83" id="1731" /></clipPath><clipPath id="1742_text_clipper"><rect x="324.00" y="359.00" width="52.15" height="13.83" id="1743" /></clipPath><clipPath id="1752_text_clipper"><rect x="324.00" y="439.00" width="52.15" height="13.83" id="1753" /></clipPath><clipPath id="1762_text_clipper"><rect x="324.00" y="519.00" width="52.15" height="13.83" id="1763" /></clipPath><clipPath id="1772_text_clipper"><rect x="244.00" y="39.00" width="31.38" height="13.83" id="1773" /></clipPath><clipPath id="1785_text_clipper"><rect x="164.00" y="39.00" width="59.13" height="13.83" id="1786" /></clipPath><clipPath id="1797_text_clipper"><rect x="84.00" y="39.00" width="37.67" height="13.83" id="1798" /></clipPath><clipPath id="1807_text_clipper"><rect x="4.00" y="39.00" width="55.30" height="27.65" id="1808" /></clipPath><clipPath id="1813_text_clipper"><rect x="4.00" y="51.45" width="55.30" height="27.65" id="1814" /></clipPath></defs></svg>